<svg version="1.2" xmlns="http://www.w3.org/2000/svg" viewBox="0 0 210 700" width="210" height="700"><style>.a{fill:none;stroke:#fff;stroke-linecap:round;stroke-linejoin:round;stroke-width:3.2}.b{fill:#fff}</style><path fill-rule="evenodd" class="a" d="m35.2 106.1q0.9 0 1.5 0.6 0.7 0.6 0.7 1.5 0 1.7-1.3 3-1.2 1.2-3 1.2-2.6 0-4.5-1.8-1.8-1.9-1.8-4.5 0-3.5 2.5-6 2.4-2.5 5.9-2.5 4.4 0 7.5 3.1 3.1 3.1 3.1 7.5 0 5.2-3.7 8.9-3.7 3.8-9 3.8-6.1 0-10.4-4.4-4.4-4.3-4.4-10.4 0-7 5-12 4.9-4.9 11.9-5 3.9 0 7.4 1.5 3.5 1.5 6.1 4.1 2.6 2.6 4.1 6.1 1.5 3.5 1.5 7.4 0 4.3-1.7 8.2-1.6 3.8-4.5 6.7-2.9 3-6.7 4.6-4 1.6-8.3 1.6-4.7 0-9-1.8-4.2-1.8-7.4-5-3.2-3.2-5-7.4-1.8-4.3-1.8-9 0-5.2 2-9.9 1.9-4.6 5.4-8.1 3.5-3.5 8.1-5.4 4.7-2 9.8-2 5.6 0 10.7 2.1 5 2.1 8.8 5.9 3.8 3.8 5.9 8.8 2.1 5.1 2.1 10.7"/><path fill-rule="evenodd" class="b" d="m49.5 31.6v17.2q0 1-0.6 1.7-0.7 0.6-1.7 0.6h-24.4q-1 0-1.7-0.6-0.6-0.7-0.6-1.7v-17.3q0-1 0.6-1.6 0.7-0.6 1.7-0.6h2.6v-5.4q0-3.5 2.7-6.3 2.9-2.8 6.8-2.8 3.9 0 6.8 2.9 2.7 2.7 2.7 6.2v5.3l2.8 0.1q1-0.1 1.6 0.6 0.7 0.7 0.7 1.7zm-10.2-11.3q-1.8-1.9-4.4-1.9-2.6 0-4.4 1.9-1.6 1.7-1.6 3.7v5.4h12v-5.5q0-1.9-1.6-3.6z"/><path class="b" d="m83 112.5c-4.5-5.6-1.4-17.5-1.4-17.5 2.9 3.6 5 7.1 6.7 10.1-1 2-2.6 5.7-2.7 9.7-0.9-0.5-1.8-1.3-2.6-2.3z"/><path class="b" d="m100.2 115.1c5 0.9 8.8 8.5 8.8 8.5-10.1 2.5-15.5-5.7-15.5-5.7 0 0 2.5-3.5 6.7-2.8z"/><path class="b" d="m99 111.6c-7.1 6.5-1.9 15.9-1.9 15.9l-4.4 3.2c0 0-8.9-13.1 1.3-25.9 0 0 1 3.8 5 6.8z"/><path class="b" d="m117.1 81.1l-8.3 3.1 4.9 3.7-7.4 2.7 4.1 4.9-6.7 2.5-1.5 5.1 6.5 2.7 2.3-5.1 4.6 4.5 2.4-5.7 3.6 4.8 2.7-6.3c0 0 3.5 11.3-5.6 14.5-11.1 3.8-19-6.1-18.9-6.1-2.3-3-7-10.7-1.6-19 6.5-9.8 18.9-6.3 18.9-6.3z"/></svg>